<?xml version="1.0" encoding="UTF-8"?><svg id="Layer_1" xmlns="http://www.w3.org/2000/svg" viewBox="0 0 609.48 74.45"><defs><style>.cls-1{fill:#ffd2dd;stroke-width:0px;}</style></defs><path class="cls-1" d="m9.11,47.45c-.97,0-1.61-.34-1.94-1.03-.32-.69-.48-1.46-.48-2.31,0-.59.04-1.17.13-1.74.09-.57.18-1.05.26-1.43.23-1.11.62-2.44,1.14-3.98.53-1.54,1.14-3.17,1.83-4.88.69-1.72,1.42-3.42,2.18-5.1.76-1.69,1.5-3.27,2.22-4.75.72-1.48,1.36-2.75,1.91-3.81-.68.03-1.45.02-2.33-.02-.88-.04-1.79-.07-2.73-.07-1.61,0-3.21.13-4.77.37-1.57.25-2.85.83-3.85,1.74-.47.44-.81.91-1.01,1.41-.21.5-.31,1-.31,1.5,0,.56.09,1.1.26,1.63.03.06.04.13.04.22,0,.29-.15.44-.44.44-.18,0-.31-.07-.4-.22-.29-.47-.51-.95-.64-1.43-.13-.48-.2-.96-.2-1.43,0-.82.15-1.6.44-2.33.29-.73.65-1.33,1.06-1.8,1.03-1.2,2.42-2,4.18-2.4s3.59-.59,5.5-.59c1.47,0,2.9.06,4.29.18,1.39.12,2.63.21,3.72.26,1.03.06,2.3.15,3.83.29,1.53.13,3.01.2,4.44.2,1.29,0,2.45-.09,3.48-.26,1.03-.18,1.77-.5,2.24-.97.09.18.13.38.13.62,0,.62-.35,1.22-1.06,1.8-.7.59-1.66.98-2.86,1.19-.38.06-.81.1-1.3.13-.48.03-.99.04-1.52.04-.88,0-1.76-.02-2.64-.07-.88-.04-1.66-.1-2.33-.15-.67-.06-1.13-.07-1.36-.04-.18.26-.45.75-.81,1.45-.37.7-.76,1.47-1.17,2.29-.41.82-.78,1.57-1.1,2.24-.56,1.17-1.14,2.49-1.76,3.96-.62,1.47-1.2,2.95-1.76,4.44-.56,1.5-1.03,2.92-1.43,4.27-.4,1.35-.65,2.51-.77,3.48-.03.09-.04.18-.04.29v.29c0,.56.11,1.03.33,1.43s.56.59,1.03.59c.41,0,.91-.22,1.5-.66.59-.44,1.26-1.17,2.02-2.2.15-.18.28-.26.4-.26.18,0,.26.15.26.44,0,.21-.07.48-.2.84-.13.35-.36.76-.68,1.23-.26.38-.69.89-1.28,1.52-.59.63-1.16,1.17-1.72,1.61-.5.41-1.12.78-1.85,1.1-.73.32-1.44.48-2.11.48Z"/><path class="cls-1" d="m33.48,46.74c-1,0-1.68-.3-2.05-.9-.37-.6-.55-1.3-.55-2.09,0-.85.14-1.84.42-2.97.28-1.13.63-2.3,1.06-3.52.42-1.22.86-2.35,1.3-3.41.15-.35.29-.73.42-1.14.13-.41.2-.78.2-1.1,0-.59-.26-.88-.79-.88-.21,0-.44.04-.7.11-.26.07-.57.21-.92.42-.62.29-1.2.7-1.76,1.21-.56.51-.94.9-1.14,1.17-.38.47-.75.99-1.1,1.56-.35.57-.66,1.15-.92,1.74-.59,1.26-1.05,2.46-1.39,3.59-.34,1.13-.65,2.09-.95,2.88-.18.5-.35,1.01-.53,1.54-.18.53-.34,1.04-.48,1.54h-4.27c.41-1.47.76-2.57,1.06-3.3,1.35-3.49,2.62-7.05,3.83-10.69,1.2-3.64,2.65-7.13,4.36-10.47.76-1.5,1.59-2.87,2.49-4.14.89-1.26,1.85-2.27,2.86-3.01,1.01-.75,2.07-1.12,3.19-1.12.88,0,1.49.2,1.83.59.34.4.51.89.51,1.47,0,.65-.13,1.32-.4,2.02-.26.7-.53,1.31-.79,1.8-.53,1.06-1.22,2.24-2.07,3.56-.85,1.32-1.75,2.55-2.68,3.7-.21.26-.56.68-1.06,1.25-.5.57-1,1.15-1.52,1.74-.51.59-.92,1.04-1.21,1.36.97-.7,1.8-1.25,2.51-1.63.7-.38,1.3-.65,1.8-.79.85-.23,1.55-.35,2.11-.35,1.67,0,2.51.73,2.51,2.2,0,.62-.18,1.35-.53,2.2-.18.47-.43,1.1-.75,1.89-.32.79-.65,1.64-.99,2.53-.34.9-.62,1.75-.84,2.57-.22.82-.33,1.5-.33,2.02,0,.32.05.61.15.86.1.25.3.37.59.37.21,0,.5-.1.88-.31.82-.47,1.59-1.13,2.31-1.98.72-.85,1.36-1.76,1.94-2.73.57-.97,1.06-1.85,1.47-2.64.09-.21.19-.31.31-.31.15,0,.22.25.22.75,0,.24-.03.51-.09.81-.06.31-.18.61-.35.9-.41.7-.95,1.57-1.61,2.6-.66,1.03-1.4,2.03-2.22,3.01-.82.98-1.69,1.81-2.6,2.49s-1.82,1.01-2.73,1.01Zm-5.06-15.8c1.47-1.73,2.96-3.59,4.47-5.57s2.76-4,3.76-6.05c.06-.15.19-.44.4-.88s.4-.93.57-1.47c.18-.54.26-1,.26-1.39,0-.5-.19-.75-.57-.75s-.83.26-1.34.79c-.51.53-1.03,1.23-1.56,2.11-.67,1.12-1.36,2.4-2.07,3.85-.7,1.45-1.39,2.98-2.05,4.6-.66,1.61-1.28,3.2-1.87,4.75Z"/><path class="cls-1" d="m51.21,45.86c-1.35.7-2.77,1.06-4.27,1.06-1.26,0-2.43-.31-3.52-.92-1.09-.62-1.82-1.6-2.2-2.95-.18-.62-.26-1.26-.26-1.94,0-1.11.2-2.27.59-3.45.4-1.19.92-2.28,1.56-3.28,1-1.55,2.26-2.84,3.78-3.87,1.53-1.03,3.21-1.54,5.06-1.54,1.38,0,2.45.35,3.21,1.06.76.7,1.14,1.53,1.14,2.46,0,1.12-.37,2.09-1.12,2.93s-1.72,1.47-2.93,1.91c-.59.21-1.21.36-1.87.46-.66.1-1.28.15-1.87.15-1.2,0-2.13-.16-2.77-.48-.56,1.44-.84,2.76-.84,3.96,0,1.09.25,1.97.75,2.66.5.69,1.29,1.03,2.38,1.03.91,0,1.81-.25,2.71-.75.89-.5,1.73-1.11,2.51-1.85.78-.73,1.43-1.44,1.96-2.11.41-.5.76-.97,1.06-1.41s.6-.95.92-1.52c.32-.57.7-1.28,1.14-2.13.12-.21.22-.31.31-.31.18,0,.26.23.26.7,0,.26-.04.55-.11.86-.07.31-.2.62-.37.95-.41.73-.9,1.53-1.47,2.4-.57.87-1.15,1.69-1.74,2.49-.53.7-1.13,1.35-1.8,1.94-.68.59-1.41,1.09-2.2,1.5Zm-4-9.37c.15.09.31.15.48.18.18.03.35.04.53.04.59,0,1.17-.14,1.76-.42.59-.28,1.08-.56,1.5-.86.67-.47,1.25-1.03,1.72-1.67.47-.65.73-1.38.79-2.2.03-.35-.05-.65-.24-.9-.19-.25-.52-.37-.99-.37-.24,0-.53.04-.88.13-.47.12-.94.34-1.41.66-.47.32-.92.7-1.36,1.14-.15.15-.4.43-.77.86-.37.43-.71.9-1.03,1.41-.32.51-.48.96-.48,1.34,0,.32.13.54.4.66Z"/><path class="cls-1" d="m105.98,45.51h.14L120.81,0h17.86v1.73c-6.77,0-7.71,1.3-7.71,5.69v42.77c0,4.39.94,5.69,7.71,5.69v1.73h-23.47v-1.73c6.7,0,7.63-1.3,7.63-5.69V4.18h-.22l-17.57,54.87h-3.24L84.3,4.9h-.22v45.29c0,4.39,1.01,5.69,7.71,5.69v1.73h-18.36v-1.73c6.7,0,7.63-1.3,7.63-5.69V7.42c0-4.39-.94-5.69-7.63-5.69V0h17.93l14.62,45.51Z"/><path class="cls-1" d="m153.92,50.19c0,4.61.72,5.69,5.11,5.69v1.73h-17.14v-1.73c4.39,0,5.11-1.08,5.11-5.69v-22.18c0-4.82-.07-5.83-4.25-4.1l-.65-1.66,10.58-4.25,1.22,1.08v31.11Zm-8.71-43.49c0-2.59,1.95-4.46,4.68-4.46s4.61,1.87,4.61,4.46-1.94,4.39-4.61,4.39-4.68-1.87-4.68-4.39Z"/><path class="cls-1" d="m194.03,49.47c-.22,5.47-1.94,9.29-6.7,9.29-4.1,0-6.55-2.74-6.55-9.43v-1.3c-1.66,6.77-5.47,10.73-10.66,10.73s-7.99-3.82-7.99-8.5c0-9.07,10.44-13.1,18.65-16.78v-4.18c0-6.19-2.02-8.35-5.54-8.35-2.81,0-4.82,1.44-4.82,3.82,0,1.66,1.01,2.59,1.01,4.25,0,1.94-1.22,3.31-3.53,3.31-2.59,0-3.96-1.8-3.96-4.46,0-5.33,5.18-9.79,12.46-9.79s11.3,3.96,11.3,11.74v21.24c0,3.53.72,4.39,1.87,4.39,1.51,0,2.66-1.44,2.81-5.98h1.66Zm-13.25-5.11v-8.5c-5.83,3.02-11.74,6.48-11.74,12.46,0,3.02,1.37,4.97,3.89,4.97,2.88,0,5.98-2.66,7.85-8.93Z"/><path class="cls-1" d="m244.22,50.19c0,4.61.65,5.69,4.82,5.69v1.73h-15.91v-1.73c3.6,0,4.18-1.08,4.18-5.69v-21.31c0-3.89-1.44-5.69-4.03-5.69s-4.9,1.8-7.42,5.18v21.82c0,4.61.58,5.69,4.18,5.69v1.73h-15.34v-1.73c3.67,0,4.25-1.08,4.25-5.69v-21.31c0-3.89-1.44-5.69-4.03-5.69s-5.04,1.87-7.63,5.47v21.53c0,4.61.58,5.69,4.25,5.69v1.73h-16.06v-1.73c4.25,0,4.9-1.08,4.9-5.69v-22.18c0-4.82,0-5.76-4.25-4.03l-.72-1.58,10.51-4.39,1.37,1.08v6.62h.22c2.74-4.1,5.83-7.56,10.73-7.56,4.25,0,6.77,2.66,7.49,7.56h.22c2.66-4.1,5.76-7.56,10.66-7.56s7.63,3.74,7.63,10.37v21.67Z"/><path class="cls-1" d="m264.37,50.19c0,4.61.72,5.69,5.11,5.69v1.73h-17.14v-1.73c4.39,0,5.11-1.08,5.11-5.69v-22.18c0-4.82-.07-5.83-4.25-4.1l-.65-1.66,10.58-4.25,1.22,1.08v31.11Zm-8.71-43.49c0-2.59,1.94-4.46,4.68-4.46s4.61,1.87,4.61,4.46-1.94,4.39-4.61,4.39-4.68-1.87-4.68-4.39Z"/><path class="cls-1" d="m333.57,1.73c-6.7,0-7.71,1.3-7.71,5.69v42.77c0,4.39,1.01,5.69,7.71,5.69v1.73h-23.04v-1.73c6.34,0,7.27-1.3,7.27-5.69v-21.46h-22.32v21.46c0,4.39.86,5.69,7.2,5.69v1.73h-22.97v-1.73c6.7,0,7.63-1.3,7.63-5.69V7.42c0-4.39-.94-5.69-7.63-5.69V0h22.97v1.73c-6.34,0-7.2,1.3-7.2,5.69v18.22h22.32V7.42c0-4.39-.94-5.69-7.27-5.69V0h23.04v1.73Z"/><path class="cls-1" d="m348.83,50.19c0,4.61.72,5.69,5.11,5.69v1.73h-17.14v-1.73c4.39,0,5.11-1.08,5.11-5.69v-22.18c0-4.82-.07-5.83-4.25-4.1l-.65-1.66,10.58-4.25,1.22,1.08v31.11Zm-8.71-43.49c0-2.59,1.94-4.46,4.68-4.46s4.61,1.87,4.61,4.46-1.95,4.39-4.61,4.39-4.68-1.87-4.68-4.39Z"/><path class="cls-1" d="m361.86,56.17c-.94-.72-1.51-.5-1.95.36l-.58,1.44h-1.58l-.5-15.55h1.58c1.08,8.57,5.19,13.32,10.15,13.32,3.38,0,5.18-2.3,5.18-5.98,0-3.24-1.51-4.61-8.21-10.01-6.12-4.82-8.21-7.63-8.21-11.74,0-5.98,4.32-9.86,10.01-9.86,3.24,0,5.47,1.37,6.77,2.45.94.86,1.66.5,1.87-.36l.43-1.58h1.66l.29,12.6h-1.58c-.86-5.62-4.03-10.08-8.86-10.08-2.88,0-4.75,1.94-4.75,4.82,0,3.02,1.87,4.61,6.91,8.57,6.48,5.11,9.58,8.21,9.58,13.68,0,7.13-4.82,10.51-10.37,10.51-3.67,0-6.34-1.51-7.85-2.59Z"/><path class="cls-1" d="m405.64,41.48c0,11.23-2.23,17.28-9.29,17.28-5.62,0-8.57-3.38-8.57-13.46v-22.9h-5.04v-2.66c5.26-.14,8.57-4.03,9.29-10.8h2.59v10.51h8.64v2.95h-8.5v21.03c0,6.41.65,10.66,4.03,10.66s4.82-4.03,4.82-12.6h2.02Z"/><path class="cls-1" d="m409.09,38.67c0-11.59,5.69-20.52,15.48-20.52,9.29,0,15.48,8.28,15.48,20.09s-5.76,20.52-15.48,20.52-15.48-8.28-15.48-20.09Zm23.69,3.82c0-9.79-2.95-21.17-9.29-21.17-5.11,0-7.2,6.77-7.2,13.1,0,9.79,3.03,21.17,9.36,21.17,5.11,0,7.13-6.77,7.13-13.1Z"/><path class="cls-1" d="m468.71,21.96c0,2.81-1.66,4.61-3.53,4.61-1.3,0-1.87-.5-2.81-1.51-.94-.94-1.3-1.22-2.16-1.22-1.66,0-3.6,2.38-5.11,6.77v19.15c0,4.9,1.08,6.05,7.63,6.05v1.8h-19.44v-1.73c4.18,0,4.9-1.08,4.9-5.69v-22.18c0-4.82,0-5.83-4.32-4.03l-.72-1.66,5.76-2.3,4.9-2.02,1.29,1.08v6.91h.22c2.02-3.82,5.54-7.85,9.5-7.85,2.52,0,3.89,1.44,3.89,3.82Z"/><path class="cls-1" d="m470.93,69.49c0-2.38,1.59-3.67,3.6-3.67,1.8,0,2.74,1.08,3.53,2.16.87,1.3,1.51,1.66,2.59,1.66,1.87,0,3.38-2.81,4.68-7.78.22-1.3,0-4.1-.58-6.84l-8.93-28.44c-1.44-4.46-2.73-5.4-5.9-5.4v-1.73h16.85v1.73c-4.75,0-4.75.94-3.46,5.4l6.05,21.17h.36l5.98-21.17c1.22-4.46,1.22-5.4-3.46-5.4v-1.73h11.88v1.73c-2.88,0-4.18.94-5.47,5.4l-9.07,30.6c-2.95,9.86-5.9,17.07-12.67,17.28-3.38,0-5.98-2.02-5.98-4.97Z"/><path class="cls-1" d="m527.33,25.76c2.42,0,4.16.2,5.23.6.24.08.46.28.69.6s.33.85.33,1.62-.14,1.27-.42,1.51l-.25.14c-.23,0-.6-.3-1.13-.89-1.22-1.35-2.68-2.03-4.39-2.03s-3.06.66-4.09,1.99c-1.02,1.33-1.52,3.1-1.52,5.31s.53,3.99,1.6,5.38c1.07,1.4,2.47,2.09,4.2,2.09,1.13,0,1.94-.24,2.45-.71s.76-1.41.76-2.82c0-.54-.13-1.02-.38-1.42-.07-.11-.23-.29-.5-.55-.27-.26-.4-.42-.4-.49,0-.36.83-.55,2.5-.55,1.07,0,1.77.06,2.12.17s.52.33.52.64c0,.06-.11.25-.33.58s-.35.54-.38.65-.1.84-.21,2.18c-.11,1.34-.25,2.15-.45,2.42-.19.27-.66.52-1.42.75-1.92.59-3.34.89-4.25.89h-.51c-1.19,0-2.3-.21-3.35-.62s-1.94-.98-2.68-1.72-1.33-1.68-1.78-2.84-.67-2.35-.67-3.57v-.55c0-1.19.24-2.37.71-3.54.89-2.18,2.37-3.69,4.44-4.53,1.15-.47,2.34-.7,3.55-.7Z"/><path class="cls-1" d="m541.47,33.64c0-2.84-.05-4.51-.14-5.02-.09-.51-.31-.86-.65-1.07-.7-.42-1.05-.75-1.05-.99s.15-.41.45-.51,1.06-.15,2.29-.15h1.93c.94,0,1.41.19,1.41.57,0,.02-.16.22-.48.62s-.53.96-.64,1.7c-.11.74-.17,2.29-.17,4.64s.06,3.96.18,4.82c.36,2.57,1.79,3.86,4.29,3.87,1.64,0,2.83-.58,3.57-1.73.62-.95.93-2.59.93-4.94l.03-1.04v-2.72c0-1.29-.08-2.26-.23-2.89s-.39-1.18-.7-1.66-.46-.72-.46-.75c0-.32.62-.48,1.87-.48s2.08.04,2.51.13.65.32.65.71c0,.19-.25.44-.76.74s-.82.62-.94.97c-.12.35-.18,1.7-.18,4.04l.03,3.06c0,1.66-.11,2.92-.29,3.77-.19.86-.57,1.64-1.16,2.34-1.13,1.35-2.97,2.03-5.52,2.03s-4.41-.77-5.59-2.32c-.56-.73-.91-1.62-1.05-2.67-.08-.55-.11-2.25-.11-5.08Z"/><path class="cls-1" d="m568.76,26.41c0,.16-.24.4-.73.71-.49.31-.79.74-.9,1.28-.11.54-.17,2.67-.17,6.39s.07,5.85.21,6.39c.14.54.45.94.93,1.21.48.27.72.51.72.74,0,.31-.39.47-1.16.47h-.28s-.58-.03-.58-.03c-.2,0-.39-.01-.58-.01l-.56-.03h-1.71c-1.38,0-2.07-.12-2.07-.37v-.18c0-.16.27-.4.82-.72.55-.32.89-.77,1.02-1.35s.2-2.65.2-6.21-.08-5.64-.24-6.23-.41-.99-.76-1.17c-.69-.38-1.04-.67-1.04-.86,0-.33,1.31-.5,3.92-.5l1.4-.03h.83c.5,0,.75.17.75.5Z"/><path class="cls-1" d="m580.84,25.85h.66c4.24,0,7.03,1.66,8.37,4.96.44,1.08.66,2.23.66,3.44v.36c0,1.4-.23,2.67-.7,3.78-.91,2.18-2.52,3.72-4.82,4.61-1.06.41-2.23.61-3.5.61h-1.27s-.65-.03-.65-.03c-.21,0-.43-.01-.65-.01l-1.87-.04c-1.9,0-2.84-.14-2.84-.42s.18-.51.55-.7c.63-.32.99-.58,1.08-.76.2-.39.3-1.28.3-2.67v-6.02l-.03-1.61-.03-1.28c0-1.13-.1-1.85-.3-2.16-.2-.3-.52-.55-.95-.73-.44-.18-.65-.41-.65-.68,0-.32.65-.48,1.94-.48l1.22-.03.3-.03h.3c1.83-.09,2.79-.13,2.87-.13Zm.28,1.37h-.61c-.93,0-1.45.19-1.55.56-.05.18-.08,1.43-.08,3.77v5.37c-.01.21-.01.42-.01.63v.62c-.01.21-.01.42-.01.63v.83s-.01.62-.01.62c0,.88.12,1.42.37,1.63s.84.31,1.79.31h.2c1.77-.01,3.18-.6,4.24-1.76.53-.58.95-1.35,1.26-2.29s.46-1.9.46-2.88v-.91c0-.91-.13-1.83-.41-2.78-.56-1.91-1.66-3.22-3.31-3.92-.67-.29-1.44-.43-2.32-.43Z"/><path class="cls-1" d="m606.55,25.88c1.52,0,2.27.85,2.27,2.55,0,.45-.1.67-.29.67-.11,0-.37-.12-.78-.37s-.75-.42-1.02-.51c-1.2-.41-2.27-.62-3.2-.62s-1.57.23-1.92.69c-.48.63-.72,1.8-.72,3.5,0,.61.21,1.06.62,1.36.41.3.89.44,1.43.44s1.08-.18,1.64-.55.84-.55.84-.55c.42,0,.71.17.87.5s.23.87.23,1.61c0,1.31-.3,1.97-.9,1.97-.16,0-.5-.21-1-.62s-1.04-.62-1.61-.62c-.97,0-1.62.21-1.94.62-.21.27-.32,1.08-.32,2.44s.24,2.34.72,2.97c.27.35.92.52,1.94.52s2.22-.22,3.58-.66c.38-.12.69-.26.91-.42s.46-.33.7-.51c.24-.18.39-.27.45-.27.29,0,.43.14.43.43v.41c0,.65-.11,1.19-.34,1.61s-.43.69-.62.81c-.35.22-1.73.33-4.14.33h-2.23c-3.19-.01-5.03-.05-5.52-.12-.49-.07-.74-.26-.74-.56,0-.19.23-.44.69-.74s.75-.67.89-1.12c.13-.45.2-2.2.2-5.27l.05-4.96c0-1.62-.1-2.63-.3-3.02-.09-.18-.36-.38-.79-.61s-.65-.43-.65-.61c0-.34.28-.55.83-.63.23-.03,2.03-.05,5.39-.05h3.81s.53-.01.53-.01Z"/></svg>